<!-- <svg
  width="65"
  height="40"
  viewBox="0 0 65 40"
  fill="#fff"
  xmlns="http://www.w3.org/2000/svg"
  >
  <path d="M0.824158 29.5238H5.48701V5.00952H0.824158V29.5238Z"></path>
  <path d="M16.8884 30.0381C22.3398 30.0381 26.0769 25.9924 26.0769 20.7467C26.0769 15.5009 22.3398 11.4552 16.8884 11.4552C11.4369 11.4552 7.69978 15.5009 7.69978 20.7467C7.69978 25.9924 11.4369 30.0381 16.8884 30.0381ZM16.8884 26.4724C14.0084 26.4724 12.4312 24.1752 12.4312 20.7467C12.4312 17.3181 14.0084 14.9867 16.8884 14.9867C19.7341 14.9867 21.3455 17.3181 21.3455 20.7467C21.3455 24.1752 19.7341 26.4724 16.8884 26.4724Z"></path>
  <path d="M35.993 35.5238C38.5987 35.5238 40.8616 34.9067 42.3358 33.5352C43.6387 32.3352 44.4273 30.6552 44.4273 28.1867V11.9352H39.9359V13.7867H39.8673C38.8044 12.3124 37.193 11.4552 34.9987 11.4552C30.5416 11.4552 27.3873 14.8152 27.3873 20.0609C27.3873 25.3752 31.2273 28.4609 35.1359 28.4609C37.3644 28.4609 38.7016 27.5695 39.7301 26.4038H39.833V28.3238C39.833 30.7238 38.5644 31.9924 35.9244 31.9924C33.7644 31.9924 32.7701 31.1352 32.393 30.0381H27.7644C28.2444 33.4667 31.193 35.5238 35.993 35.5238ZM35.9244 24.7238C33.5244 24.7238 31.9473 22.9752 31.9473 19.9924C31.9473 17.0438 33.5244 15.1924 35.8901 15.1924C38.7016 15.1924 40.073 17.3867 40.073 19.9581C40.073 22.5638 38.873 24.7238 35.9244 24.7238Z"></path>
  <path d="M55.7611 30.0381C61.2125 30.0381 64.9497 25.9924 64.9497 20.7467C64.9497 15.5009 61.2125 11.4552 55.7611 11.4552C50.3097 11.4552 46.5725 15.5009 46.5725 20.7467C46.5725 25.9924 50.3097 30.0381 55.7611 30.0381ZM55.7611 26.4724C52.8811 26.4724 51.304 24.1752 51.304 20.7467C51.304 17.3181 52.8811 14.9867 55.7611 14.9867C58.6068 14.9867 60.2183 17.3181 60.2183 20.7467C60.2183 24.1752 58.6068 26.4724 55.7611 26.4724Z"></path>
</svg> -->

<svg 
  width="80"
  height="60" 
  viewBox="0 0 24 24"
  fill="none" 
  xmlns="http://www.w3.org/2000/svg">
  <g id="SVGRepo_bgCarrier" stroke-width="0"></g><g id="SVGRepo_tracerCarrier" stroke-linecap="round" stroke-linejoin="round"></g><g id="SVGRepo_iconCarrier"> <path fill-rule="evenodd" clip-rule="evenodd" d="M13 4.5C13 4.67532 12.9699 4.84361 12.9146 5H13C13 4.17157 13.6716 3.5 14.5 3.5C15.3284 3.5 16 4.17157 16 5L15.9999 5.01446C16.1208 5.02147 16.2409 5.031 16.3603 5.043C16.5263 4.72055 16.8624 4.5 17.25 4.5C17.787 4.5 18.2251 4.92325 18.249 5.45435C21.5943 6.59707 24 9.7676 24 13.5V16C24 18.2091 22.2091 20 20 20H5.33333C2.38781 20 0 17.6122 0 14.6667V14C0 10.661 1.81827 7.74674 4.51866 6.19327C4.50642 6.13074 4.5 6.06612 4.5 6C4.5 5.44772 4.94772 5 5.5 5C5.83151 5 6.12535 5.16132 6.30729 5.40973C6.5396 5.33699 6.77595 5.27341 7.01593 5.21942C7.00544 5.1478 7 5.07453 7 5C7 4.17157 7.67157 3.5 8.5 3.5C9.32843 3.5 10 4.17157 10 5H10.0854C10.0301 4.84361 10 4.67532 10 4.5C10 3.67157 10.6716 3 11.5 3C12.3284 3 13 3.67157 13 4.5ZM9 7C5.13401 7 2 10.134 2 14V14.6667C2 16.5076 3.49238 18 5.33333 18H16.5351C16.1948 17.4117 16 16.7286 16 16V13.6471C16 9.97599 13.024 7 9.35294 7H9ZM14.8839 7C16.7881 8.58616 18 10.9751 18 13.6471V15V16C18 17.1046 18.8954 18 20 18C21.1046 18 22 17.1046 22 16V13.5C22 13.3749 21.9965 13.2507 21.9895 13.1274C21.7254 13.3593 21.3791 13.5 21 13.5C20.1716 13.5 19.5 12.8284 19.5 12C19.5 11.1716 20.1716 10.5 21 10.5C21.0962 10.5 21.1903 10.5091 21.2815 10.5264C20.9459 9.87521 20.5035 9.28807 19.9775 8.78808C19.9922 8.85638 20 8.92729 20 9C20 9.55228 19.5523 10 19 10C18.4477 10 18 9.55228 18 9C18 8.45891 18.4298 8.01819 18.9666 8.00055C17.9632 7.36678 16.7745 7 15.5 7H14.8839ZM18 15C18 14.4477 18.4477 14 19 14C19.5523 14 20 14.4477 20 15C20 15.5523 19.5523 16 19 16C18.4477 16 18 15.5523 18 15Z" fill="#ffffff"></path> </g>
</svg>